# xmcd
#
# Track frame offsets:
#	150
#	12875
#	23427
#	35871
#	48163
#	62451
#	74829
#	86366
#	98495
#	111004
#	124507
#	136562
#	150163
#	164875
#	178037
#	190916
#	205324
#	218229
#	232856
#	246641
#	259628
#	272799
#	285605
#	296663
#	309001
#	319651
#
# Disc length: 4460 seconds
#
# Revision: 1
# Processed by: cddbd v1.5.2PL0 Copyright (c) Steve Scherf et al.
# Submitted via: audiograbber 1.83.01
#
DISCID=66116a1a
DTITLE=Various Artist - A Complete Introduction To Chess [CD 1)
DYEAR=2010
DGENRE=Blues
TTITLE0=Jackie Brenston and His Delta Cats - Rocket 88
TTITLE1=Chuck Berry - Maybellene
TTITLE2=Bo Diddley - Bo Diddley
TTITLE3=Howlin' Wolf - How Many More Years
TTITLE4=Lowell Fulson - Reconsider Baby
TTITLE5=Little Walter - Juke
TTITLE6=Sonny Boy Williamson - Don't Start Me Talkin'
TTITLE7=Muddy Waters - I can't Be Satisfied
TTITLE8=John Lee Hooker - Leave My Wife Alone
TTITLE9=Bo Diddley - I'm A Man
TTITLE10=Little Walter - My Babe
TTITLE11=Elmore James - Dust My Broom
TTITLE12=Eddie Boyd - Third Degree
TTITLE13=Hownlin' Wolf - Moanin' At Midnight
TTITLE14=Muddy Waters - I'm Your Hoochie Coochie Man
TTITLE15=The Moonglows - Sincerely
TTITLE16=Jimmy Witherspoon - When The Lights Go Out
TTITLE17=John Lee Hooker - Sugar Mama
TTITLE18=Rosco Gordon - Booted
TTITLE19=Willie Mabon - Seventh Son
TTITLE20=Muddy Waters - Mannish Boy
TTITLE21=Willie Dixon - Crazy For My Baby
TTITLE22=Sugar Boy Crawford - Jock-A-Mo
TTITLE23=Little Walter - Last Night
TTITLE24=Clarence 'Frogman' Henry - Ain't Got No Home
TTITLE25=Willie Dixon - Pain In My Heart
EXTD=
EXTT0=
EXTT1=
EXTT2=
EXTT3=
EXTT4=
EXTT5=
EXTT6=
EXTT7=
EXTT8=
EXTT9=
EXTT10=
EXTT11=
EXTT12=
EXTT13=
EXTT14=
EXTT15=
EXTT16=
EXTT17=
EXTT18=
EXTT19=
EXTT20=
EXTT21=
EXTT22=
EXTT23=
EXTT24=
EXTT25=
PLAYORDER=
